<?xml version="1.0" encoding="utf-8"?>
<!-- Generator: Adobe Illustrator 28.2.0, SVG Export Plug-In . SVG Version: 6.00 Build 0)  -->
<svg version="1.1" id="Layer_1" xmlns="http://www.w3.org/2000/svg" xmlns:xlink="http://www.w3.org/1999/xlink" x="0px" y="0px"
	 viewBox="0 0 532.31 75.91" style="enable-background:new 0 0 532.31 75.91;" xml:space="preserve">
<style type="text/css">
	.st0{fill:#FFFFFF;}
</style>
<g>
	<path class="st0" d="M128.26,5.03h-20.42L76.7,70.88h22.72l17.88-40.6h1.43l18.03,40.6h22.64L128.26,5.03z"/>
	<polygon class="st0" points="49.08,37.26 49.08,38.69 72.03,48.82 72.03,71.95 22.22,46.68 20.79,46.68 20.79,75.91 0,75.91 0,0 
		20.79,0 20.79,29.23 22.22,29.23 72.03,3.95 72.03,27.02 	"/>
	<polygon class="st0" points="509.36,37.26 509.36,38.69 532.31,48.82 532.31,71.95 482.5,46.68 481.07,46.68 481.07,75.91 
		460.28,75.91 460.28,0 481.07,0 481.07,29.23 482.5,29.23 532.31,3.95 532.31,27.02 	"/>
	<path class="st0" d="M426.69,4.46v66.99h20.79V4.46H426.69z"/>
	<g>
		<path class="st0" d="M218.49,5.03v39.34h-1.36L188.17,5.03h-22.65v65.86h22.29V31.17h1.37l28.95,39.71h22.66V5.03H218.49z"/>
	</g>
	<g>
		<path class="st0" d="M391.59,5.03v39.34h-1.36L361.27,5.03h-22.65v65.86h22.29V31.17h1.37l28.95,39.71h22.66V5.03H391.59z"/>
	</g>
	<g>
		<path class="st0" d="M289.71,2.69c-24.73,0-39.51,11.33-39.51,30.26v10.01c0,18.94,14.78,30.27,39.51,30.27
			s39.49-11.33,39.49-30.27V32.94C329.21,14.01,314.44,2.69,289.71,2.69z M303.59,42.77c0,11.09-4.33,16.16-13.88,16.16
			c-9.55,0-13.88-5.07-13.88-16.16v-9.63c0-11.09,4.33-16.17,13.88-16.17c9.55,0,13.88,5.08,13.88,16.17V42.77z"/>
	</g>
</g>
</svg>
